<svg width="82" height="81" viewBox="0 0 82 81" fill="none" xmlns="http://www.w3.org/2000/svg">
<g filter="url(#filter0_i_968_11511)">
<g filter="url(#filter1_i_968_11511)">
<path fill-rule="evenodd" clip-rule="evenodd" d="M42.9336 60.7884C43.9993 59.7227 43.9997 57.9948 42.9339 56.929C41.8682 55.8632 40.1399 55.8632 39.0741 56.9288C38.0083 57.9948 38.0087 59.7227 39.0745 60.7884C40.1404 61.8545 41.8682 61.8543 42.9336 60.7884Z" fill="url(#paint0_radial_968_11511)"/>
<path fill-rule="evenodd" clip-rule="evenodd" d="M25.6014 34.9097C27.1087 34.9097 28.3301 33.688 28.3301 32.1804C28.3301 30.6731 27.1087 29.4512 25.6014 29.4512C24.0939 29.4512 22.8721 30.6731 22.8721 32.1804C22.8721 33.688 24.0939 34.9097 25.6014 34.9097Z" fill="url(#paint1_radial_968_11511)"/>
<path fill-rule="evenodd" clip-rule="evenodd" d="M41.0044 72.8279C38.8949 72.8279 37.1849 74.5377 37.1849 76.6472C37.1849 78.7568 38.8949 80.4668 41.0044 80.4668C43.1136 80.4668 44.824 78.7568 44.824 76.6472C44.824 74.5377 43.1136 72.8279 41.0044 72.8279Z" fill="url(#paint2_radial_968_11511)"/>
<path fill-rule="evenodd" clip-rule="evenodd" d="M56.4078 18.2114C58.5169 18.2114 60.2269 16.5014 60.2269 14.392C60.2269 12.2822 58.5169 10.5723 56.4078 10.5723C54.2983 10.5728 52.588 12.2827 52.588 14.392C52.588 16.5018 54.2983 18.2118 56.4078 18.2114Z" fill="url(#paint3_radial_968_11511)"/>
<path fill-rule="evenodd" clip-rule="evenodd" d="M37.358 9.59924C39.9594 12.4653 41.6451 18.7513 39.0755 21.3207C39.0755 21.3207 39.0755 21.3209 39.0751 21.3209C38.5381 21.8579 38.2725 22.5631 38.2768 23.2668C38.2735 23.9694 38.5394 24.6729 39.0755 25.2089C41.7224 27.8559 39.8539 34.4473 37.1203 37.181C34.9753 39.3265 34.9753 42.8046 37.1203 44.95C39.2658 47.0954 42.7442 47.0955 44.8893 44.95C47.0348 42.8046 47.0348 39.326 44.8893 37.181C42.1561 34.4477 40.2879 27.8574 42.9333 25.2099C42.9338 25.2094 42.9341 25.2093 42.9346 25.2089C43.4718 24.6717 43.7372 23.9666 43.7333 23.2629C43.7364 22.5602 43.4701 21.857 42.9346 21.3207C40.365 18.751 42.0507 12.4649 44.6521 9.59892C45.7843 8.59243 46.4983 7.12597 46.4983 5.4925C46.4983 2.45835 44.0387 -0.00120947 41.0049 -0.00120974C37.9707 -0.00121 35.5113 2.45835 35.5113 5.4925C35.5113 7.12612 36.2258 8.59294 37.358 9.59924Z" fill="url(#paint4_radial_968_11511)"/>
<path fill-rule="evenodd" clip-rule="evenodd" d="M12.1269 43.0121C13.1927 41.9463 13.1927 40.2185 12.1269 39.1525C11.061 38.0869 9.3334 38.0867 8.26751 39.1525C7.20174 40.2185 7.20174 41.9463 8.26751 43.0121C9.68712 44.4317 10.7787 52.8851 7.49622 56.1676C6.00477 57.6592 6.00477 60.0775 7.49673 61.5694C8.98799 63.0609 11.4061 63.0609 12.8979 61.5694C14.3898 60.0775 14.3898 57.6592 12.8979 56.1676C9.61547 52.8851 10.7071 44.4317 12.1269 43.0121Z" fill="url(#paint5_radial_968_11511)"/>
<path fill-rule="evenodd" clip-rule="evenodd" d="M28.3024 52.6725C29.7939 51.181 29.7939 48.7626 28.3023 47.2706C26.8108 45.7794 24.3925 45.7794 22.9009 47.2706C21.409 48.7626 21.409 51.181 22.9009 52.6725C26.1832 55.9549 25.0917 64.4082 23.6717 65.8278C22.606 66.8937 22.606 68.6215 23.6717 69.6876C24.7376 70.7532 26.4654 70.7533 27.5312 69.6876C28.5971 68.6215 28.5971 66.8937 27.5312 65.8278C26.1119 64.4083 25.02 55.9565 28.3018 52.6735C28.3018 52.673 28.3023 52.6728 28.3024 52.6725Z" fill="url(#paint6_radial_968_11511)"/>
<path fill-rule="evenodd" clip-rule="evenodd" d="M69.1105 56.1642C68.6174 56.6572 68.2911 57.2518 68.1238 57.8803L68.121 57.8751C66.9196 62.359 59.053 65.6403 57.1138 65.1206L57.1161 65.1248C56.8902 65.0641 56.6532 65.0287 56.4082 65.0287C54.9007 65.0287 53.6788 66.2506 53.6788 67.7576C53.6788 69.2648 54.9012 70.4868 56.4082 70.4868C57.6721 70.4868 58.7319 69.6266 59.0422 68.4609L59.0435 68.4629C59.5629 66.5239 66.3367 61.3525 70.8205 62.5526C70.8209 62.5528 70.8217 62.5529 70.8222 62.5532L70.8205 62.5507C72.0954 62.892 73.5116 62.5662 74.5122 61.5659C76.004 60.0741 76.004 57.6557 74.5122 56.1642C71.2298 52.8818 72.3214 44.4283 73.7412 43.0087L73.7401 43.0087C73.7406 43.0085 73.7409 43.0081 73.7412 43.0079C74.8071 41.942 74.8071 40.2142 73.7412 39.1485C72.3214 37.7286 71.2303 29.2772 74.5114 25.9939C74.5119 25.9934 74.5122 25.9933 74.5127 25.9928C76.004 24.5014 76.004 22.0829 74.5122 20.5913C73.0207 19.0998 70.6023 19.0998 69.1109 20.5913C67.6191 22.0829 67.6191 24.5014 69.1105 25.9928C72.3929 29.2752 71.3013 37.7285 69.8818 39.1485C68.8161 40.2142 68.8161 41.942 69.8818 43.0079C69.8818 43.0081 69.8823 43.0085 69.8826 43.0087L69.8818 43.0087C71.3013 44.4282 72.3929 52.8802 69.1117 56.1629C69.1114 56.1634 69.1108 56.1637 69.1105 56.1642Z" fill="url(#paint7_radial_968_11511)"/>
<path fill-rule="evenodd" clip-rule="evenodd" d="M53.7075 47.2681C52.2161 48.7599 52.2161 51.1782 53.7075 52.6698C55.1993 54.1616 57.6178 54.1614 59.1092 52.6698C60.601 51.178 60.601 48.7599 59.1092 47.2681C56.109 44.2678 56.6578 37.3366 59.1084 34.8842C59.1087 34.8839 59.1092 34.8834 59.1095 34.8831C60.601 33.3916 60.601 30.9734 59.1092 29.4816C57.6178 27.99 55.1993 27.99 53.7079 29.4816C52.2161 30.9734 52.2161 33.3916 53.7075 34.8831C56.159 37.3345 56.7085 44.2674 53.7075 47.2681Z" fill="url(#paint8_radial_968_11511)"/>
<path fill-rule="evenodd" clip-rule="evenodd" d="M9.20828 26.9792C11.2461 27.5253 13.3405 26.316 13.8864 24.2786C14.7836 20.9299 20.5129 16.9875 24.6118 18.0861C26.6495 18.6316 28.744 17.4222 29.2899 15.3849C29.8359 13.3471 28.6267 11.2529 26.5889 10.7073C24.5514 10.1613 22.4573 11.37 21.9111 13.408C20.8133 17.5053 14.5393 20.4952 11.1893 19.6013C11.1881 19.601 11.1865 19.6005 11.1854 19.6002C9.14792 19.0545 7.05362 20.2639 6.50763 22.3017C5.9616 24.3385 7.17084 26.4332 9.20828 26.9792Z" fill="url(#paint9_radial_968_11511)"/>
</g>
</g>
<defs>
<filter id="filter0_i_968_11511" x="0.766602" y="-0.000976562" width="80.4667" height="82.2559" filterUnits="userSpaceOnUse" color-interpolation-filters="sRGB">
<feFlood flood-opacity="0" result="BackgroundImageFix"/>
<feBlend mode="normal" in="SourceGraphic" in2="BackgroundImageFix" result="shape"/>
<feColorMatrix in="SourceAlpha" type="matrix" values="0 0 0 0 0 0 0 0 0 0 0 0 0 0 0 0 0 0 127 0" result="hardAlpha"/>
<feOffset dy="1.78815"/>
<feGaussianBlur stdDeviation="0.894074"/>
<feComposite in2="hardAlpha" operator="arithmetic" k2="-1" k3="1"/>
<feColorMatrix type="matrix" values="0 0 0 0 0 0 0 0 0 0 0 0 0 0 0 0 0 0 0.25 0"/>
<feBlend mode="normal" in2="shape" result="effect1_innerShadow_968_11511"/>
</filter>
<filter id="filter1_i_968_11511" x="0.766663" y="-0.000976562" width="80.4667" height="80.4678" filterUnits="userSpaceOnUse" color-interpolation-filters="sRGB">
<feFlood flood-opacity="0" result="BackgroundImageFix"/>
<feBlend mode="normal" in="SourceGraphic" in2="BackgroundImageFix" result="shape"/>
<feColorMatrix in="SourceAlpha" type="matrix" values="0 0 0 0 0 0 0 0 0 0 0 0 0 0 0 0 0 0 127 0" result="hardAlpha"/>
<feOffset/>
<feGaussianBlur stdDeviation="0.800196"/>
<feComposite in2="hardAlpha" operator="arithmetic" k2="-1" k3="1"/>
<feColorMatrix type="matrix" values="0 0 0 0 1 0 0 0 0 1 0 0 0 0 1 0 0 0 0.2 0"/>
<feBlend mode="normal" in2="shape" result="effect1_innerShadow_968_11511"/>
</filter>
<radialGradient id="paint0_radial_968_11511" cx="0" cy="0" r="1" gradientUnits="userSpaceOnUse" gradientTransform="translate(43.2176 60.9117) rotate(-135.946) scale(6.87732 12.4189)">
<stop stop-color="#F4D52B"/>
<stop offset="1" stop-color="#FFD90B"/>
</radialGradient>
<radialGradient id="paint1_radial_968_11511" cx="0" cy="0" r="1" gradientUnits="userSpaceOnUse" gradientTransform="translate(27.8146 34.2334) rotate(-135.944) scale(6.87737 12.419)">
<stop stop-color="#F4D52B"/>
<stop offset="1" stop-color="#FFD90B"/>
</radialGradient>
<radialGradient id="paint2_radial_968_11511" cx="0" cy="0" r="1" gradientUnits="userSpaceOnUse" gradientTransform="translate(44.1025 79.5204) rotate(-135.947) scale(9.62515 17.3808)">
<stop stop-color="#F4D52B"/>
<stop offset="1" stop-color="#FFD90B"/>
</radialGradient>
<radialGradient id="paint3_radial_968_11511" cx="0" cy="0" r="1" gradientUnits="userSpaceOnUse" gradientTransform="translate(59.5055 17.265) rotate(-135.946) scale(9.62516 17.3809)">
<stop stop-color="#F4D52B"/>
<stop offset="1" stop-color="#FFD90B"/>
</radialGradient>
<radialGradient id="paint4_radial_968_11511" cx="0" cy="0" r="1" gradientUnits="userSpaceOnUse" gradientTransform="translate(45.4607 40.7908) rotate(-103.707) scale(41.9878 34.9286)">
<stop stop-color="#F4D52B"/>
<stop offset="1" stop-color="#FFD90B"/>
</radialGradient>
<radialGradient id="paint5_radial_968_11511" cx="0" cy="0" r="1" gradientUnits="userSpaceOnUse" gradientTransform="translate(13.2954 59.6732) rotate(-107.977) scale(22.4142 23.7769)">
<stop stop-color="#F4D52B"/>
<stop offset="1" stop-color="#FFD90B"/>
</radialGradient>
<radialGradient id="paint6_radial_968_11511" cx="0" cy="0" r="1" gradientUnits="userSpaceOnUse" gradientTransform="translate(28.6995 67.472) rotate(-107.976) scale(22.414 23.7764)">
<stop stop-color="#F4D52B"/>
<stop offset="1" stop-color="#FFD90B"/>
</radialGradient>
<radialGradient id="paint7_radial_968_11511" cx="0" cy="0" r="1" gradientUnits="userSpaceOnUse" gradientTransform="translate(73.5578 64.1667) rotate(-113.979) scale(48.9156 65.634)">
<stop stop-color="#F4D52B"/>
<stop offset="1" stop-color="#FFD90B"/>
</radialGradient>
<radialGradient id="paint8_radial_968_11511" cx="0" cy="0" r="1" gradientUnits="userSpaceOnUse" gradientTransform="translate(59.5066 50.6386) rotate(-107.252) scale(23.3252 23.8725)">
<stop stop-color="#F4D52B"/>
<stop offset="1" stop-color="#FFD90B"/>
</radialGradient>
<radialGradient id="paint9_radial_968_11511" cx="0" cy="0" r="1" gradientUnits="userSpaceOnUse" gradientTransform="translate(27.2446 25.062) rotate(-145.233) scale(25.403 43)">
<stop stop-color="#F4D52B"/>
<stop offset="1" stop-color="#FFD90B"/>
</radialGradient>
</defs>
</svg>
